<?xml version="1.0" standalone="no"?>
<!DOCTYPE svg PUBLIC "-//W3C//DTD SVG 20010904//EN" "http://www.w3.org/TR/2001/REC-SVG-20010904/DTD/svg10.dtd">
<svg version="1.0" xmlns="http://www.w3.org/2000/svg" width="500.000000pt" height="500.000000pt"
    viewBox="0 0 500.000000 500.000000" preserveAspectRatio="xMidYMid meet">

    <g transform="translate(0.000000,500.000000) scale(0.100000,-0.100000)" fill="currentColor" stroke="none">
        <path d="M1803 3661 c-46 -15 -78 -34 -148 -86 -19 -13 -25 -12 -69 10 -119
60 -267 8 -305 -107 -6 -18 -78 -442 -161 -943 -103 -621 -150 -926 -147 -962
13 -175 260 -230 367 -81 17 22 30 48 30 56 0 16 1 15 90 -17 68 -25 200 -28
285 -6 138 36 287 129 372 233 l48 59 65 -4 c78 -6 187 15 270 53 l60 27 37
-37 c148 -146 377 -135 549 26 60 57 66 60 82 45 10 -9 40 -26 67 -39 73 -33
231 -33 329 1 192 66 344 236 414 462 31 99 55 245 49 296 -12 106 -129 144
-222 72 -37 -30 -56 -73 -76 -174 -30 -158 -75 -250 -157 -327 -50 -47 -116
-75 -151 -63 -20 6 -41 45 -41 76 0 12 27 188 60 392 86 531 83 502 64 559
-27 83 -104 120 -202 98 -52 -11 -122 -64 -134 -99 -3 -12 -12 -12 -50 -3 -72
18 -217 15 -286 -6 -73 -23 -162 -81 -202 -132 -63 -79 -76 -128 -133 -472
-59 -357 -59 -356 -139 -410 -36 -24 -122 -47 -134 -36 -2 3 32 238 77 524 94
605 96 650 42 767 -59 124 -171 216 -308 252 -81 21 -226 19 -292 -4z m122
-342 c22 -6 54 -26 71 -44 46 -49 57 -102 44 -205 -19 -156 -117 -770 -123
-777 -4 -3 -28 3 -54 15 -102 43 -274 54 -358 22 -15 -6 -30 -8 -33 -5 -8 8
108 691 129 760 35 115 97 187 196 225 57 22 75 24 128 9z m1175 -434 c35 -18
58 -59 66 -117 6 -47 -57 -523 -76 -573 -44 -117 -152 -175 -207 -111 -31 36
-30 60 12 382 40 309 54 362 102 404 38 34 61 37 103 15z m-1304 -870 c30 -14
54 -30 54 -34 0 -18 -63 -93 -102 -121 -85 -62 -208 -72 -250 -20 -50 62 4
170 100 201 47 15 139 3 198 -26z" />
    </g>
</svg>